<?xml version="1.0" encoding="UTF-8" standalone="no"?><!DOCTYPE svg PUBLIC "-//W3C//DTD SVG 1.1//EN" "http://www.w3.org/Graphics/SVG/1.1/DTD/svg11.dtd"><svg width="100%" height="100%" viewBox="0 0 200 200" version="1.1" xmlns="http://www.w3.org/2000/svg" xmlns:xlink="http://www.w3.org/1999/xlink" xml:space="preserve" xmlns:serif="http://www.serif.com/" style="fill-rule:evenodd;clip-rule:evenodd;stroke-miterlimit:8;"><clipPath id="_clip1"><rect id="duck-pipe.svg" x="6.392" y="20.549" width="186.994" height="157.423"/></clipPath><g clip-path="url(#_clip1)"><g><path d="M99.52,83.124c9.118,-0.294 17.519,0.725 23.572,2.41l3.538,1.196l0.161,0.049l0.044,0.021l0.333,0.112l1.183,0.61l1.51,0.72l0.164,0.143l0.185,0.094l1.527,1.396l0.098,0.085l0.003,0.007l0.229,0.209c0.405,0.58 0.587,1.172 0.52,1.765c-0.274,4.798 -8.868,7.143 -20.55,8.177l-3.68,0.189l-1.977,0.192c-2.184,0.148 -4.474,0.237 -6.86,0.259c-10.947,0.002 -20.98,-1.595 -27.058,-3.948l-0.126,-0.059l-0.246,-0.075c-3.509,-1.298 -5.555,-2.879 -5.638,-4.735c-0.243,-1.247 0.433,-2.421 1.902,-3.482l0.604,-0.326l0.219,-0.212c4.91,-3.426 16.035,-5.061 30.343,-4.797Z" style="fill:#262626;stroke:#262626;stroke-width:1.33px;"/><path d="M66.432,92.255c0.014,-0.002 0.02,0.001 0.034,0c0.246,0.593 0.656,1.456 0.638,1.678c1.131,1.923 5.4,3.153 11.3,4.163l2.496,0.383l2.206,0.284c4.911,0.583 10.554,1.168 16.398,2.17c6.387,-0.08 12.444,-0.583 17.583,-1.414l4.353,-0.847l3.98,-1.157c3.633,-1.259 6.101,-2.788 6.986,-4.453c-0.001,-0.364 0.116,-0.474 0.154,-0.807c0.007,-0.002 0.01,-0.001 0.016,0c0.129,2.022 0.07,3.859 -0.059,5.619l-0.004,0.033l0.131,2.192c0.396,5.793 1.009,12.706 -0.068,14.39c0,0.232 -0.03,0.48 0,0.589c-0.02,0.008 -0.063,0.004 -0.107,-0c-0.038,0.131 -0.07,0.239 -0.063,0.35c-1.369,3.239 -14.434,9.59 -32.902,8.241c-4.343,0.235 -8.471,0.105 -12.245,-0.288l-4.014,-0.578l-1.201,-0.169l-0.05,-0.012l-0.114,-0.015l-2.126,-0.491l-2.424,-0.55l-0.109,-0.036l-0.084,-0.019l-1.773,-0.593l-2.033,-0.672l-0.07,-0.033l-0.127,-0.042c-3.599,-1.438 -5.933,-3.132 -6.532,-4.743c-0.03,-0.033 -0.017,-0.23 -0.064,-0.35c-0.011,0.009 -0.074,-0.006 -0.106,-0c-0.043,-0.101 -0.028,-0.3 -0,-0.589c-0.739,-3.956 -0.696,-6.881 -0.437,-9.439l0.14,-1.121l-0.005,-1.237c0.045,-3.977 0.189,-7.727 0.302,-10.437Z" style="fill:#ffc000;stroke:#262626;stroke-width:1.33px;"/><path d="M173.81,132.766c6.097,0.154 11.055,1.13 14.339,2.657l1.793,1.059l0.169,0.09l0.023,0.023l0.274,0.162c1.255,0.961 1.993,2.059 2.132,3.252c0.833,2.749 -1.467,5.031 -5.659,7.396c-1.105,0.895 -1.57,1.112 -3.047,1.632c0.014,0.011 0.036,0.024 0.052,0.029c1.978,1.458 2.791,2.658 2.967,4.521c-0.031,1.281 -0.936,3.13 -2.967,4.522c-0.283,0.287 -0.895,0.535 -1.186,0.672c1.517,0.665 2.946,1.596 4.002,2.664c3.756,2.925 5.739,5.35 4.818,7.812c-0.564,2.535 -3.592,4.241 -8.166,5.118l-0.419,0.049l-0.451,0.135c-7.323,1.508 -18.129,0.607 -30.622,-2.745c-7.878,-1.666 -14.258,-4.27 -20.216,-6.821c-1.428,-0.371 -2.257,-1.284 -3.305,-1.717c-0.077,-0.02 -0.23,-0.044 -0.342,-0.057c-5.285,-0.852 -9.487,-2.419 -12.347,-4.193l-1.083,-0.782l-0.7,-0.45c-1.708,-1.303 -2.62,-2.717 -2.514,-4.207c-0.164,-1.612 1.044,-3.151 2.967,-4.521c0.325,-0.287 1.667,-1.196 2.169,-1.229c0.287,-0.341 0.696,-1.052 1.064,-1.368c4.587,-4.213 15.398,-10.778 28.744,-12.059c1.907,-0.182 3.865,-0.257 5.864,-0.202c1.401,-0.244 2.782,-0.404 4.132,-0.516l0.046,-0.003l3.723,-0.463c2.549,-0.228 4.998,-0.347 7.289,-0.329c2.266,-0.142 4.424,-0.182 6.457,-0.131Z" style="fill:#fefdf8;stroke:#262626;stroke-width:1.33px;"/><path d="M28.239,134.985c2.389,-0.054 5.013,0.019 7.871,0.225c3.438,0.028 7.283,0.074 11.225,0.603c1.315,0.177 2.64,0.408 3.965,0.71c22.023,2.661 38.058,10.154 36.99,17.197c-0.038,0.824 -0.507,1.542 -1.127,2.203c-0.009,0.011 -0.036,0.021 -0.054,0.037c-0.04,0.223 -0.013,0.426 -0.051,0.597c-0.76,1.85 -2.185,3.518 -4.166,5.069l-0.911,0.607l-1.849,1.496c-6.012,4.354 -15.418,8.762 -27.162,10.437c-21.303,5.155 -38.031,3.692 -39.658,-2.559c-0.23,-0.685 -0.175,-1.447 0.142,-2.292l0.068,-0.11l0.009,-0.099c0.321,-0.884 0.881,-1.784 1.644,-2.591c0.723,-0.824 2.46,-2.122 2.688,-2.482l-1.914,-0.91l-2.4,-0.7c-4.013,-1.537 -6.539,-4.029 -6.447,-6.501c-0.395,-2.402 2.755,-5.169 6.447,-6.5c0.431,-0.305 1.348,-0.562 1.754,-0.655c-0.333,-0.129 -1.602,-1.246 -2.001,-1.513c-1.733,-1.946 -2.766,-3.279 -2.38,-4.924c0.079,-0.628 0.302,-1.224 0.661,-1.782l0.95,-1.008l0.736,-0.809c2.773,-2.278 7.805,-3.583 14.97,-3.746Z" style="fill:#fefdf8;stroke:#262626;stroke-width:1.33px;"/><path d="M93.786,67.712c5.917,-0.054 13.661,0.473 17.697,0.876c0.675,8.607 2.348,26.577 0,31.717c-2.522,0.601 -3.424,-0.099 -5.579,0.265c-2.001,0.046 -4.109,0.565 -6.701,0.466c-2.594,-0.101 -5.579,-0.992 -8.857,-1.065c-0.412,0.089 -3.973,-0.845 -4.631,-0.814c-0.852,-12.866 -0.051,-26.162 0.59,-30.569c1.039,-0.602 3.932,-0.844 7.481,-0.876Z" style="fill:#fefdf8;stroke:#262626;stroke-width:1.33px;"/><path d="M66.424,137.77c0.017,0.001 0.019,0.003 0.035,0c0.163,0.577 0.505,1.142 0.638,1.676c3.884,4.45 15.993,6.434 32.409,6.991c12.857,-0.655 24.312,-2.622 29.707,-5.16l2.158,-1.305l1.045,-1.396c0.107,-0.238 0.049,-0.516 0.154,-0.806l0.017,0l0.176,4.802l0.067,0.944c0.322,4.54 0.69,10.837 -0.243,16.459c0.045,0.251 -0.011,0.324 0,0.587c-0.039,0.006 -0.091,-0.003 -0.107,0c-0.003,0.086 -0.041,0.281 -0.064,0.35c-1.62,6.949 -15.38,10.069 -32.91,8.23c-15.633,0.244 -27.718,-2.632 -31.71,-6.512l-0.019,-0.028l-0.173,-0.117c-0.535,-0.508 -0.879,-1.034 -1.009,-1.573c-0.002,-0.106 -0.023,-0.212 -0.064,-0.35c-0.053,0 -0.081,0.004 -0.107,0c-0.03,-0.219 -0.018,-0.377 0,-0.587c-0.338,-1.62 0.132,-5.41 0.45,-9.676l0.243,-6.439l-0.013,-0.36c-0.153,-2.097 -0.38,-4.075 -0.68,-5.73Z" style="fill:#002776;stroke:#262626;stroke-width:1.33px;"/><path d="M66.416,114.965c0.012,-0.001 0.021,0.001 0.034,-0l0.207,0.78l0.431,0.898c5.392,2.9 17.086,5.092 32.389,7.01c10.638,-0.083 20.273,-1.732 26.349,-3.838l3.154,-1.291l2.149,-1.33c0.588,-0.473 1.007,-0.951 1.238,-1.422c0.035,-0.237 0.167,-0.511 0.153,-0.807c0.007,-0.001 0.015,-0.001 0.018,-0c-0.001,3.946 1.229,13.246 -0,22.26c-0.032,0.067 0.03,0.306 -0,0.59c-0.038,0.01 -0.081,0.003 -0.107,-0c-0,0.134 -0.049,0.285 -0.064,0.351c-0.538,7 -15.919,10.873 -32.89,8.251c-2.044,0.033 -4.067,-0.009 -6.047,-0.115l-0.268,-0.024l-0.107,-0.003c-14.468,-0.705 -25.06,-3.966 -26.468,-8.109c-0.02,-0.138 -0.034,-0.273 -0.063,-0.351c-0.023,-0 -0.08,-0.007 -0.108,-0c-0.04,-0.077 0.01,-0.431 0,-0.59c-0.533,-8.08 -0.777,-11.328 0,-22.26Z" style="fill:#e64b26;stroke:#262626;stroke-width:1.33px;"/><path d="M99.328,21.289c12.645,-0.713 22.794,4.642 29.818,11.381l0.395,0.443l4.513,4.873c2.665,3.405 4.495,6.899 5.43,10.023l0.224,1.345l0.273,1.05c0.134,0.697 0.21,1.352 0.228,1.955c1.536,11.402 -11.346,24.832 -40.659,21.767c-7.053,-0.037 -13.018,-1.117 -18.005,-2.835l-2.105,-0.936l-4.479,-1.922c-8.031,-4.331 -12.419,-10.379 -14.036,-15.412l-0.032,-0.164l-0.054,-0.123c-0.38,-1.194 -0.582,-2.296 -0.62,-3.254c0.323,-1.4 0.835,-2.866 1.527,-4.362l1.465,-2.557l0.451,-0.931c5.069,-9.261 15.501,-21.079 35.666,-20.341Z" style="fill:#fefdf8;stroke:#262626;stroke-width:1.33px;"/><path d="M99.639,37.103c1.805,-0.404 2.131,3.532 2.308,7.693c0.175,4.258 -0.85,7.621 -2.308,7.694c-1.412,0.517 -2.384,-3.408 -2.307,-7.694c0.007,-1.061 0.075,-2.07 0.193,-2.987l0.215,-1.058l0.257,-1.396c0.389,-1.429 0.941,-2.327 1.642,-2.252Z" style="fill:#262626;stroke:#262626;stroke-width:1.33px;"/><path d="M74.741,32.049c1.435,-0.019 3.002,3.674 2.323,7.68c0.059,4.069 -1.003,7.595 -2.323,7.68c-1.001,0.161 -2.548,-3.176 -2.323,-7.68c-0.011,-1.02 0.048,-2.003 0.163,-2.906l0.223,-1.089l0.28,-1.416c0.408,-1.38 0.979,-2.236 1.657,-2.269Z" style="fill:#262626;"/><path d="M71.677,46.765c6.689,-0.228 11.769,1.019 15.399,2.874l0.092,0.06l0.332,0.132c1.145,0.599 2.12,1.262 2.942,1.96l1.509,1.612l0.497,0.501c1.178,1.521 1.758,3.056 1.787,4.348c-0.033,4.925 -8.672,7.544 -17.85,8.61l-1.805,0.115l-2.574,0.322c-1.552,0.123 -3.12,0.174 -4.68,0.139c-10.366,0.814 -40.188,2.886 -39.755,-5.201c-1.663,-5.164 15.332,-14.201 36.876,-14.721c2.593,-0.436 5.001,-0.676 7.23,-0.751Z" style="fill:#ffc000;stroke:#262626;stroke-width:1.33px;"/></g></g><g id="duck-pipe.svg1" serif:id="duck-pipe.svg"></g></svg>